# xmcd CD database file
#
# Track frame offsets:
#	150
#	13767
#	27782
#	38410
#	51815
#	67030
#	78462
#	91767
#	103357
#	117027
#
# Disc length: 1754 seconds
#
# Revision: 4
# Processed by: cddbd v1.5.2PL0 Copyright (c) Steve Scherf et al.
# Submitted via: CDex 1.79
#
DISCID=7506d80a
DTITLE=Ricky Van Shelton   - Loving Proof
DYEAR=1989
DGENRE=Classic Country
TTITLE0=Ricky Van Shelton - Swimming Upstream
TTITLE1=Ricky Van Shelton - I'll Leave This World Loving You - #1 Cty - 1988
TTITLE2=Ricky Van Shelton - From A Jack To A King - #1 - 1988
TTITLE3=Ricky Van Shelton - Let Me Live With Love (And Die With You)
TTITLE4=Ricky Van Shelton - Living Proof - #1 - 1989
TTITLE5=Ricky Van Shelton - Hole In My Pocket - #4 - 1989
TTITLE6=Ricky Van Shelton - The Picture
TTITLE7=Ricky Van Shelton - Somebody's Back In Town
TTITLE8=Ricky Van Shelton - Don't Send Me No Angels
TTITLE9=Ricky Van Shelton - He's Got You
EXTD=YEAR: 1989
EXTT0=
EXTT1=
EXTT2=
EXTT3=
EXTT4=
EXTT5=
EXTT6=
EXTT7=
EXTT8=
EXTT9=
PLAYORDER=
